<svg width="226" height="56" viewBox="0 0 226 56" fill="none" xmlns="http://www.w3.org/2000/svg">
<path fill-rule="evenodd" clip-rule="evenodd" d="M176.152 14.5145C175.83 15.0008 175.66 15.5714 175.663 16.1544C175.645 16.5468 175.709 16.9388 175.852 17.3048C175.995 17.6709 176.213 18.0029 176.492 18.2794C176.771 18.5559 177.105 18.7707 177.472 18.9099C177.84 19.0492 178.232 19.1097 178.624 19.0877C179.207 19.0849 179.776 18.9093 180.26 18.5832C180.743 18.257 181.118 17.7949 181.339 17.2553C181.559 16.7156 181.615 16.1228 181.498 15.5516C181.382 14.9804 181.099 14.4566 180.685 14.0464C180.27 13.6361 179.744 13.3579 179.172 13.2469C178.599 13.1359 178.007 13.1971 177.47 13.4227C176.932 13.6484 176.474 14.0283 176.152 14.5145ZM181.179 21.6421H176.042L176 40H181.179V21.6421ZM142.19 33.0385L139.256 37.0104C141.369 39.1798 144.256 40.4216 147.284 40.4631C152.519 40.4631 155.537 36.9403 155.537 32.9403C155.63 31.5372 155.272 30.1412 154.514 28.9567C153.756 27.7722 152.639 26.8614 151.326 26.3578L148.618 25.1648C148.511 25.1171 148.406 25.0703 148.303 25.0243C146.582 24.2583 145.333 23.7022 145.333 22.4841C145.333 21.1929 146.33 20.4771 147.93 20.4771C149.595 20.5369 151.177 21.2178 152.365 22.3859L154.947 18.7789C154.062 17.7917 152.981 16.9998 151.773 16.4537C150.565 15.9075 149.256 15.6192 147.93 15.6069C146.933 15.5384 145.933 15.6725 144.99 16.0011C144.046 16.3296 143.179 16.8459 142.441 17.5188C141.702 18.1916 141.108 19.007 140.693 19.9159C140.279 20.8248 140.052 21.8082 140.028 22.8069C140.012 24.2171 140.421 25.5993 141.202 26.7735C141.984 27.9477 143.1 28.8592 144.407 29.3894L147.214 30.6806L147.224 30.6851C149.085 31.5527 150.26 32.1004 150.26 33.3894C150.26 34.6806 149.361 35.4806 147.453 35.4806C145.462 35.3243 143.594 34.4575 142.19 33.0385ZM55.1999 33.0386L52.2666 37.0105C54.3725 39.173 57.2485 40.4143 60.2666 40.4632C65.5017 40.4632 68.5192 36.9403 68.5192 32.9404C68.6125 31.5373 68.254 30.1413 67.4963 28.9568C66.7387 27.7722 65.6216 26.8615 64.3087 26.3579L61.5999 25.1649C61.4933 25.1172 61.3883 25.0704 61.2849 25.0244C59.5646 24.2584 58.3157 23.7022 58.3157 22.4842C58.3157 21.193 59.3122 20.4772 60.9122 20.4772C62.5772 20.5369 64.1594 21.2179 65.3473 22.386L67.9298 18.7789C67.0446 17.7918 65.9634 16.9999 64.7551 16.4537C63.5469 15.9076 62.2381 15.6192 60.9122 15.607C59.9167 15.5405 58.918 15.676 57.9763 16.0055C57.0345 16.335 56.1692 16.8516 55.4323 17.5242C54.6954 18.1968 54.1022 19.0116 53.6884 19.9195C53.2746 20.8274 53.0488 21.8096 53.0245 22.807C53.0085 24.2172 53.4177 25.5994 54.1988 26.7736C54.9799 27.9477 56.0967 28.8593 57.4035 29.3895L60.2105 30.6807L60.248 30.6982C62.0931 31.5583 63.2701 32.1069 63.2701 33.3895C63.2701 34.6807 62.3719 35.4807 60.4631 35.4807C58.4726 35.3243 56.6046 34.4576 55.1999 33.0386ZM16 16H21.2632L22.6667 26.9334L23.5368 34.5544H23.6632C24.0702 32 24.5053 29.4176 24.9403 26.9334L27.1439 16H31.4386L33.6982 26.9334C33.9488 28.3477 34.1807 29.8039 34.4154 31.2779L34.4155 31.2781L34.4155 31.2783L34.4156 31.2786L34.4156 31.2789L34.4156 31.279L34.4157 31.2797C34.5886 32.3648 34.7629 33.4596 34.9474 34.5544H35.1017C35.2758 32.775 35.4699 31.0089 35.661 29.2699L35.661 29.2697L35.661 29.2696L35.661 29.2696L35.661 29.2695L35.6611 29.2691L35.6611 29.2688L35.6612 29.2684L35.6612 29.2681L35.6612 29.268L35.6612 29.2675L35.6613 29.2672L35.6614 29.2665L35.6621 29.2595L35.6622 29.2586L35.6623 29.2578L35.6623 29.2574L35.6624 29.2573L35.6624 29.2572C35.7481 28.4767 35.8333 27.7017 35.9158 26.9334L37.3193 16H42.2596L38.5123 40H31.986L30.0351 29.5439C29.6842 27.7053 29.4035 25.7684 29.193 23.9298H29.0526C28.9717 24.4748 28.8921 25.0327 28.8115 25.598L28.8114 25.5985L28.8114 25.5985L28.8114 25.5985L28.8114 25.5986L28.8114 25.5986L28.8114 25.5986L28.8114 25.5986L28.8114 25.5986L28.8114 25.5987L28.8114 25.5987L28.8114 25.5987L28.8114 25.5987C28.6262 26.8967 28.4354 28.2339 28.2105 29.5439L26.3158 40H19.9018L16 16ZM44.3368 16H49.5297V40H44.3368V16ZM71.3264 16H85.0386V20.7719H76.5193V25.2211H83.7614V30.0632H76.5193V35.1719H85.3614V40H71.3264V16ZM95.9999 28.6456H87.7052V32.6737H95.9999V28.6456ZM99.0175 16H104.211V40H99.0175V16ZM115.088 21.1929C110.863 21.1929 106.976 24.7438 106.976 30.835C106.976 36.9122 110.905 40.4631 115.088 40.4631C119.27 40.4631 123.158 36.9263 123.158 30.835C123.158 24.7438 119.312 21.1929 115.088 21.1929ZM115.06 25.8385C116.997 25.8385 117.867 27.7754 117.867 30.835C117.867 33.8526 116.997 35.8175 115.06 35.8175C113.123 35.8175 112.253 33.8947 112.253 30.835C112.253 27.7754 113.123 25.8385 115.06 25.8385ZM127.86 20.7719H122.021V16H138.863V20.7719H133.067V40H127.86V20.7719ZM157.754 32.9965V21.6421H162.933V32.2948C162.933 34.8491 163.537 35.5509 164.856 35.5509C166.175 35.5509 166.737 35.0316 167.663 33.6842V21.6421H172.842V40H168.632L168.253 37.4877H168.126C167.582 38.3748 166.824 39.1117 165.922 39.6314C165.02 40.151 164.002 40.437 162.961 40.4632C159.27 40.4632 157.754 37.586 157.754 32.9965ZM185.165 33.193V26.1755H182.919V21.9649L185.445 21.7404L186.035 16.8983H190.33V21.7404H194.245V26.2316H190.344V33.2492C190.344 35.2842 191.214 36.0562 192.435 36.0562C192.953 36.0226 193.464 35.9138 193.951 35.7334L194.765 39.8597C193.566 40.3067 192.297 40.5395 191.017 40.5474C186.849 40.4632 185.165 37.5579 185.165 33.193ZM202.821 21.1929C198.821 21.1929 194.975 24.8701 194.975 30.835C194.975 36.9122 198.639 40.4631 203.382 40.4631C205.532 40.4197 207.61 39.6811 209.305 38.3578L207.593 34.9052C206.57 35.6329 205.353 36.0386 204.098 36.0701C203.082 36.1362 202.081 35.8013 201.31 35.1374C200.538 34.4735 200.058 33.5335 199.972 32.5192H209.684C209.85 31.7112 209.93 30.8879 209.923 30.0631C209.923 25.0245 207.593 21.1929 202.821 21.1929ZM202.919 25.5859C204.8 25.5859 205.53 26.9333 205.53 28.7719H199.888C200.239 26.5824 201.516 25.5859 202.919 25.5859Z" fill="#004280"/>
</svg>
