<?xml version="1.0" encoding="UTF-8"?>
<svg width="80px" height="80px" viewBox="0 0 80 80" version="1.1" xmlns="http://www.w3.org/2000/svg" xmlns:xlink="http://www.w3.org/1999/xlink">
    <title>WISE-IoTSuite/AppHub_R</title>
    <defs>
        <rect id="path-1" x="0" y="0" width="80" height="80" rx="16"></rect>
    </defs>
    <g id="WISE-IoTSuite/AppHub_R" stroke="none" stroke-width="1" fill="none" fill-rule="evenodd">
        <g id="Template-Copy">
            <mask id="mask-2" fill="white">
                <use xlink:href="#path-1"></use>
            </mask>
            <g id="background"></g>
            <g id="Group" mask="url(#mask-2)" fill-rule="nonzero">
                <g id="Common/WISE-PaaS/Dashboard_R">
                    <rect id="background" fill="#FFFFFF" x="0" y="0" width="80" height="80"></rect>
                    <path d="M19.791,18 L19.791,8.004 L17.187,8.004 L17.187,18 L19.791,18 Z M23.809,18.196 C26.651,18.196 27.029,16.208 27.029,14.22 C27.029,12.036 26.763,10.23 23.809,10.23 C21.0459444,10.23 20.6119012,12.1090895 20.5899197,14.0403759 L20.589,14.206 C20.589,16.39 20.855,18.196 23.809,18.196 Z M23.809,16.572 C23.2714,16.572 23.120872,16.1591232 23.1096899,14.4415557 L23.109,14.22 C23.109,12.302 23.249,11.854 23.809,11.854 C24.383,11.854 24.509,12.302 24.509,14.22 C24.509,16.124 24.383,16.572 23.809,16.572 Z M31.845,18 L31.845,10.216 L33.805,10.216 L33.805,8.004 L27.281,8.004 L27.281,10.216 L29.241,10.216 L29.241,18 L31.845,18 Z M37.445,18.196 C39.741,18.196 40.987,17.244 40.987,15.116 C40.987,11.462 36.731,12.428 36.731,10.454 C36.731,10.006 36.983,9.572 37.543,9.572 C38.047,9.572 38.285,10.062 38.285,10.65 L38.285,10.888 L40.721,10.888 C40.721,8.746 39.755,7.808 37.487,7.808 C35.289,7.808 34.211,8.914 34.211,10.93 C34.211,14.472 38.299,13.492 38.299,15.466 C38.299,16.012 37.991,16.432 37.459,16.432 C36.955,16.432 36.605,16.124 36.605,15.27 L36.605,15.032 L34.085,15.032 L34.085,15.382 C34.085,17.454 35.289,18.196 37.445,18.196 Z M43.773,18.196 C44.641,18.196 45.285,17.818 45.607,17.076 L45.635,17.076 L45.635,18 L48.071,18 L48.071,10.426 L45.551,10.426 L45.551,15.424 C45.551,16.054 45.383,16.32 44.935,16.32 C44.487,16.32 44.319,16.054 44.319,15.424 L44.319,10.426 L41.799,10.426 L41.799,16.138 C41.799,17.762 42.667,18.196 43.773,18.196 Z M51.641,9.88 L51.641,8.004 L49.121,8.004 L49.121,9.88 L51.641,9.88 Z M51.641,18 L51.641,10.426 L49.121,10.426 L49.121,18 L51.641,18 Z M55.197,18.084 C55.617,18.084 56.107,18.056 56.569,18 L56.569,16.32 L56.177,16.32 C55.771,16.32 55.575,16.166 55.575,15.732 L55.575,12.12 L56.569,12.12 L56.569,10.426 L55.575,10.426 L55.575,8.2 L53.055,8.2 L53.055,10.426 L52.215,10.426 L52.215,12.12 L53.055,12.12 L53.055,16.152 C53.055,17.832 53.657,18.084 55.197,18.084 Z M60.097,18.196 C62.183,18.196 63.037,17.174 63.065,15.34 L60.797,15.34 C60.797,16.376 60.531,16.656 60.083,16.656 C59.733,16.656 59.397,16.446 59.397,15.634 L59.397,14.64 L63.135,14.64 L63.135,13.87 C63.135,11.126 62.113,10.23 60.097,10.23 C57.829,10.23 56.877,11.322 56.877,14.22 C56.877,17.104 57.661,18.196 60.097,18.196 Z M60.783,13.268 L59.397,13.268 L59.397,12.932 C59.397,12.134 59.565,11.77 60.083,11.77 C60.615,11.77 60.783,12.134 60.783,12.932 L60.783,13.268 Z" id="IoTSuite" fill="#004280" opacity="0.5"></path>
                    <path d="M10.18,47 L10.579,44.375 L13.687,44.375 L14.086,47 L18.244,47 L14.59,32.006 L9.676,32.006 L6.022,47 L10.18,47 Z M13.225,41.435 L11.041,41.435 L12.112,35.072 L12.154,35.072 L13.225,41.435 Z M22.57,50.696 L22.57,45.719 L22.612,45.719 C22.99,46.874 23.914,47.294 24.985,47.294 C27.085,47.294 28.471,45.908 28.471,41.561 C28.471,37.361 27.61,35.345 25.069,35.345 C23.83,35.345 22.948,35.933 22.486,37.193 L22.444,37.193 L22.444,35.639 L18.79,35.639 L18.79,50.696 L22.57,50.696 Z M23.62,44.48 C22.7886897,44.48 22.5838335,43.8143924 22.570694,41.556997 L22.57,41.309 C22.57,38.873 22.759,38.159 23.62,38.159 C24.502,38.159 24.691,38.873 24.691,41.309 C24.691,43.766 24.502,44.48 23.62,44.48 Z M33.49,50.696 L33.49,45.719 L33.532,45.719 C33.91,46.874 34.834,47.294 35.905,47.294 C38.005,47.294 39.391,45.908 39.391,41.561 C39.391,37.361 38.53,35.345 35.989,35.345 C34.75,35.345 33.868,35.933 33.406,37.193 L33.364,37.193 L33.364,35.639 L29.71,35.639 L29.71,50.696 L33.49,50.696 Z M34.54,44.48 C33.7086897,44.48 33.5038335,43.8143924 33.490694,41.556997 L33.49,41.309 C33.49,38.873 33.679,38.159 34.54,38.159 C35.422,38.159 35.611,38.873 35.611,41.309 C35.611,43.766 35.422,44.48 34.54,44.48 Z M44.641,47 L44.641,40.826 L47.035,40.826 L47.035,47 L50.941,47 L50.941,32.006 L47.035,32.006 L47.035,37.508 L44.641,37.508 L44.641,32.006 L40.735,32.006 L40.735,47 L44.641,47 Z M55.582,47.294 C56.884,47.294 57.85,46.727 58.333,45.614 L58.375,45.614 L58.375,47 L62.029,47 L62.029,35.639 L58.249,35.639 L58.249,43.136 C58.249,44.081 57.997,44.48 57.325,44.48 C56.653,44.48 56.401,44.081 56.401,43.136 L56.401,35.639 L52.621,35.639 L52.621,44.207 C52.621,46.643 53.923,47.294 55.582,47.294 Z M69.883,47.294 C72.424,47.294 73.285,45.278 73.285,41.078 C73.285,36.689 71.983,35.345 69.799,35.345 C68.728,35.345 67.804,35.765 67.426,36.92 L67.384,36.92 L67.384,32.006 L63.604,32.006 L63.604,47 L67.258,47 L67.258,45.446 L67.3,45.446 C67.762,46.706 68.539,47.294 69.883,47.294 Z M68.434,44.48 C67.6026897,44.48 67.3978335,43.8143924 67.384694,41.5758986 L67.384,41.33 C67.384,38.873 67.573,38.159 68.434,38.159 C69.316,38.159 69.505,38.873 69.505,41.33 C69.505,43.766 69.316,44.48 68.434,44.48 Z" id="AppHub" fill="#004280"></path>
                </g>
            </g>
        </g>
        <rect id="border" stroke-opacity="0.3" stroke="#787878" x="0.5" y="0.5" width="79" height="79" rx="16"></rect>
    </g>
</svg>