<?xml version="1.0" encoding="UTF-8"?>
<svg width="280px" height="56px" viewBox="0 0 280 56" version="1.1" xmlns="http://www.w3.org/2000/svg" xmlns:xlink="http://www.w3.org/1999/xlink">
    <!-- Generator: Sketch 63 (92445) - https://sketch.com -->
    <title>Logo/WISE-PaaS/AppHub/Long@1x</title>
    <desc>Created with Sketch.</desc>
    <g id="Logo/WISE-PaaS/AppHub/Long" stroke="none" stroke-width="1" fill="none" fill-rule="evenodd">
        <rect id="Rectangle" x="0" y="0" width="280" height="56"></rect>
        <g id="Group-12" transform="translate(16.000000, 16.000000)">
            <polygon id="Fill-940" fill="#004280" points="3.94164233e-14 0.443478261 5.48210526 0.443478261 7.51831579 17.0347826 7.57052632 17.0347826 9.99831579 0.443478261 15.0888421 0.443478261 17.6993684 17.0347826 17.7776842 17.0347826 19.7355789 0.443478261 25.0349474 0.443478261 20.9886316 23.7391304 14.9061053 23.7391304 12.5305263 7.2 12.4522105 7.2 10.2071579 23.7391304 4.12463158 23.7391304"></polygon>
            <polygon id="Fill-941" fill="#004280" points="25.8705768 23.739913 31.3526821 23.739913 31.3526821 0.44426087 25.8705768 0.44426087"></polygon>
            <path d="M38.2439495,16.6434783 L38.2439495,17.4521739 C38.2439495,19.226087 38.7399495,20.5565217 40.6195284,20.5565217 C42.5513179,20.5565217 43.0995284,19.1217391 43.0995284,17.7913043 C43.0995284,12.7565217 33.0751074,15.573913 33.0751074,6.86086957 C33.0751074,3.13043478 35.0591074,2.61819552e-13 40.7239495,2.61819552e-13 C46.2060547,2.61819552e-13 48.1639495,2.76521739 48.1639495,6.36521739 L48.1639495,6.91304348 L42.8645811,6.91304348 C42.8645811,5.79130435 42.7340547,4.9826087 42.3946863,4.46086957 C42.0814232,3.91304348 41.5332126,3.65217391 40.7239495,3.65217391 C39.3403705,3.65217391 38.5311074,4.46086957 38.5311074,6.15652174 C38.5311074,11.0086957 48.5555284,8.5826087 48.5555284,16.8026087 C48.5555284,22.0956522 45.6056337,24.2086957 40.5934232,24.2086957 C36.5993179,24.2086957 32.9184758,23.0086957 32.9184758,18.1304348 L32.9184758,16.6173913 L38.2439495,16.6173913 L38.2439495,16.6434783 Z" id="Fill-942" fill="#004280"></path>
            <polygon id="Fill-943" fill="#004280" points="50.1226274 0.443478261 63.6190484 0.443478261 63.6190484 4.87826087 55.6047326 4.87826087 55.6047326 9.54782609 63.1230484 9.54782609 63.1230484 13.9826087 55.6047326 13.9826087 55.6047326 19.3017391 63.9584168 19.3017391 63.9584168 23.7391304 50.0965221 23.7391304 50.0965221 0.443478261"></polygon>
            <polygon id="Fill-944" fill="#004280" points="64.7152084 16.5373043 74.5829979 16.5373043 74.5829979 12.1025217 64.7152084 12.1025217"></polygon>
            <path d="M81.73584,10.6184348 L83.2499453,10.6184348 C85.4427874,10.6184348 85.9648926,9.23582609 85.9648926,7.668 C85.9648926,5.8706087 85.3644716,4.51147826 83.1455242,4.51147826 L81.73584,4.51147826 L81.73584,10.6184348 Z M76.2537347,0.444521739 L84.7379453,0.444521739 C90.5072084,0.444521739 91.6297347,4.61582609 91.6297347,7.51408696 C91.6297347,11.6853913 89.6457347,14.6358261 84.1375242,14.6358261 L81.7097347,14.6358261 L81.7097347,23.7375652 L76.2276295,23.7375652 L76.2276295,0.444521739 L76.2537347,0.444521739 Z" id="Fill-945" fill="#004280"></path>
            <path d="M97.8694147,20.5565217 C98.9919411,20.5565217 99.9839411,19.9043478 99.9839411,18.1304348 C99.9839411,16.6695652 100.010046,15.7565217 100.010046,15.026087 C98.3393095,15.9130435 97.6344674,15.9391304 97.1384674,16.3304348 C96.5902568,16.7478261 96.3292042,17.3217391 96.3292042,18.2869565 C96.3292042,19.7217391 96.90352,20.5565217 97.8694147,20.5565217 L97.8694147,20.5565217 Z M91.7346779,11.5304348 C91.7607832,9.10434783 92.4917305,7.64347826 93.7186779,6.80869565 C94.9717305,5.94782609 96.4597305,5.66086957 98.6525726,5.66086957 C102.986046,5.66086957 104.917836,7.17391304 104.917836,10.8782609 L104.917836,19.9565217 C104.917836,21.2869565 104.917836,22.9826087 105.544362,23.7652174 L100.453836,23.7652174 C100.244994,23.1391304 100.192783,22.4347826 100.166678,21.7304348 L100.088362,21.7304348 C99.3574147,23.2956522 97.7127832,24.2086957 95.9376253,24.2086957 C92.9616253,24.2086957 91.2386779,22.6434783 91.2386779,18.8347826 C91.2386779,16.773913 92.1001516,15.0521739 93.4054147,14.3217391 C94.7106779,13.5913043 96.6685726,13.2782609 98.1304674,12.8869565 C99.7228884,12.4695652 100.036152,12.2086957 100.036152,10.8521739 C100.036152,9.7826087 99.5401516,9.07826087 98.3654147,9.07826087 C96.90352,9.07826087 96.4597305,9.96521739 96.4336253,11.5043478 L91.7346779,11.5043478 L91.7346779,11.5304348 Z" id="Fill-946" fill="#004280"></path>
            <path d="M113.062156,20.5565217 C114.184682,20.5565217 115.176682,19.9043478 115.176682,18.1304348 C115.176682,16.6695652 115.202787,15.7565217 115.202787,15.026087 C113.532051,15.9130435 112.827208,15.9391304 112.331208,16.3304348 C111.782998,16.7478261 111.521945,17.3217391 111.521945,18.2869565 C111.521945,19.7217391 112.096261,20.5565217 113.062156,20.5565217 L113.062156,20.5565217 Z M106.927419,11.5304348 C106.953524,9.10434783 107.684472,7.64347826 108.911419,6.80869565 C110.164472,5.94782609 111.652472,5.66086957 113.845314,5.66086957 C118.178787,5.66086957 120.110577,7.17391304 120.110577,10.8782609 L120.110577,19.9565217 C120.110577,21.2869565 120.110577,22.9826087 120.737103,23.7652174 L115.646577,23.7652174 C115.437735,23.1391304 115.385524,22.4347826 115.359419,21.7304348 L115.281103,21.7304348 C114.550156,23.2956522 112.905524,24.2086957 111.130366,24.2086957 C108.154366,24.2086957 106.431419,22.6434783 106.431419,18.8347826 C106.431419,16.773913 107.292893,15.0521739 108.598156,14.3217391 C109.903419,13.5913043 111.861314,13.2782609 113.323208,12.8869565 C114.915629,12.4695652 115.228893,12.2086957 115.228893,10.8521739 C115.228893,9.7826087 114.732893,9.07826087 113.558156,9.07826087 C112.096261,9.07826087 111.652472,9.96521739 111.626366,11.5043478 L106.927419,11.5043478 L106.927419,11.5304348 Z" id="Fill-947" fill="#004280"></path>
            <path d="M126.976522,16.6434783 L126.976522,17.4521739 C126.976522,19.226087 127.472522,20.5565217 129.352101,20.5565217 C131.283891,20.5565217 131.832101,19.1217391 131.832101,17.7913043 C131.832101,12.7565217 121.80768,15.573913 121.80768,6.86086957 C121.80768,3.13043478 123.79168,2.61819552e-13 129.456522,2.61819552e-13 C134.938627,2.61819552e-13 136.896522,2.76521739 136.896522,6.36521739 L136.896522,6.91304348 L131.597154,6.91304348 C131.597154,5.79130435 131.466627,4.9826087 131.127259,4.46086957 C130.813996,3.91304348 130.265785,3.65217391 129.456522,3.65217391 C128.072943,3.65217391 127.26368,4.46086957 127.26368,6.15652174 C127.26368,11.0086957 137.288101,8.5826087 137.288101,16.8026087 C137.288101,22.0956522 134.338206,24.2086957 129.325996,24.2086957 C125.331891,24.2086957 121.651048,23.0086957 121.651048,18.1304348 L121.651048,16.6173913 L126.976522,16.6173913 L126.976522,16.6434783 Z" id="Fill-948" fill="#004280"></path>
            <polygon id="Fill-949" fill="#004280" points="144.388472 0.000260869565 148.826366 0.000260869565 141.386366 24.2089565 136.948472 24.2089565"></polygon>
            <path d="M156.997575,4.6953913 L156.945364,4.6953913 L155.013575,15.078 L159.00768,15.078 L156.997575,4.6953913 Z M153.682206,0.443217391 L160.547891,0.443217391 L166.369364,23.7388696 L160.678417,23.7388696 L159.816943,19.304087 L154.230417,19.304087 L153.421154,23.7388696 L147.730206,23.7388696 L153.682206,0.443217391 Z" id="Fill-950" fill="#0883C7"></path>
            <path d="M174.200421,20.3731304 C176.132211,20.3731304 176.236632,18.260087 176.236632,15.0513913 C176.236632,12.207913 176.158316,9.49486957 174.174316,9.49486957 C172.608,9.49486957 172.268632,11.4018261 172.268632,14.8166087 C172.268632,17.9470435 172.399158,20.3731304 174.200421,20.3731304 L174.200421,20.3731304 Z M167.073684,6.10356522 L172.164211,6.10356522 L172.164211,8.26878261 L172.242526,8.26878261 C172.634105,7.06878261 173.704421,5.66008696 176.053895,5.66008696 C179.604211,5.66008696 181.509895,8.2166087 181.509895,14.7905217 C181.509895,20.2687826 180.726737,24.234 176.393263,24.234 C174.931368,24.234 173.312842,23.7383478 172.451368,21.860087 L172.373053,21.860087 L172.373053,29.5322609 L167.073684,29.5322609 L167.073684,6.10356522 Z" id="Fill-951" fill="#0883C7"></path>
            <path d="M190.333996,20.3731304 C192.265785,20.3731304 192.370206,18.260087 192.370206,15.0513913 C192.370206,12.207913 192.291891,9.49486957 190.307891,9.49486957 C188.741575,9.49486957 188.402206,11.4018261 188.402206,14.8166087 C188.402206,17.9470435 188.532733,20.3731304 190.333996,20.3731304 L190.333996,20.3731304 Z M183.207259,6.10356522 L188.297785,6.10356522 L188.297785,8.26878261 L188.376101,8.26878261 C188.76768,7.06878261 189.837996,5.66008696 192.187469,5.66008696 C195.737785,5.66008696 197.643469,8.2166087 197.643469,14.7905217 C197.643469,20.2687826 196.860312,24.234 192.526838,24.234 C191.064943,24.234 189.446417,23.7383478 188.584943,21.860087 L188.506627,21.860087 L188.506627,29.5322609 L183.207259,29.5322609 L183.207259,6.10356522 Z" id="Fill-952" fill="#0883C7"></path>
            <polygon id="Fill-953" fill="#0883C7" points="199.575259 0.443478261 205.057364 0.443478261 205.057364 9.15652174 209.443048 9.15652174 209.443048 0.443478261 214.925154 0.443478261 214.925154 23.7391304 209.443048 23.7391304 209.443048 13.773913 205.057364 13.773913 205.057364 23.7391304 199.575259 23.7391304"></polygon>
            <path d="M231.292893,23.7665217 L226.202366,23.7665217 L226.202366,21.6769565 L226.150156,21.6769565 C225.393103,23.2447826 223.852893,24.236087 221.894998,24.236087 C218.892893,24.236087 217.300472,22.7230435 217.300472,19.3317391 L217.300472,6.10304348 L222.59984,6.10304348 L222.59984,18.1578261 C222.59984,19.436087 223.148051,20.1926087 224.140051,20.1926087 C225.158156,20.1926087 226.045735,19.4073913 226.045735,17.6882609 L226.045735,6.12913043 L231.345103,6.12913043 L231.345103,23.7665217 L231.292893,23.7665217 Z" id="Fill-954" fill="#0883C7"></path>
            <path d="M240.507528,20.3731304 C242.491528,20.3731304 242.569844,17.660087 242.569844,14.8166087 C242.569844,11.6105217 242.465423,9.49486957 240.533634,9.49486957 C238.732371,9.49486957 238.601844,11.9235652 238.601844,15.0513913 C238.627949,18.4713913 238.941213,20.3731304 240.507528,20.3731304 L240.507528,20.3731304 Z M233.433002,0.442695652 L238.732371,0.442695652 L238.732371,8.01052174 L238.810686,8.01052174 C239.698265,6.10356522 241.290686,5.6366087 242.752581,5.6366087 C247.086055,5.6366087 247.869213,9.57313043 247.869213,15.080087 C247.869213,21.6774783 245.963528,24.2105217 242.413213,24.2105217 C240.063739,24.2105217 238.993423,22.8018261 238.601844,21.6018261 L238.523528,21.6018261 L238.523528,23.7670435 L233.433002,23.7670435 L233.433002,0.442695652 Z" id="Fill-955" fill="#0883C7"></path>
        </g>
    </g>
</svg>