<?xml version="1.0" encoding="UTF-8"?>
<svg width="133px" height="56px" viewBox="0 0 133 56" version="1.1" xmlns="http://www.w3.org/2000/svg" xmlns:xlink="http://www.w3.org/1999/xlink">
    <!-- Generator: Sketch 63 (92445) - https://sketch.com -->
    <title>Logo/WISE-PaaS/AppHub/Short@1x</title>
    <desc>Created with Sketch.</desc>
    <g id="Logo/WISE-PaaS/AppHub/Short" stroke="none" stroke-width="1" fill="none" fill-rule="evenodd">
        <rect id="Rectangle" x="0" y="0" width="133" height="56"></rect>
        <g id="Group-12" transform="translate(16.000000, 16.000000)" fill="#019FF3">
            <path d="M9.99757474,4.6953913 L9.94536421,4.6953913 L8.01357474,15.078 L12.00768,15.078 L9.99757474,4.6953913 Z M6.68220632,0.443217391 L13.5478905,0.443217391 L19.3693642,23.7388696 L13.6784168,23.7388696 L12.8169432,19.304087 L7.23041684,19.304087 L6.42115368,23.7388696 L0.730206316,23.7388696 L6.68220632,0.443217391 Z" id="Fill-950"></path>
            <path d="M27.2004211,20.3731304 C29.1322105,20.3731304 29.2366316,18.260087 29.2366316,15.0513913 C29.2366316,12.207913 29.1583158,9.49486957 27.1743158,9.49486957 C25.608,9.49486957 25.2686316,11.4018261 25.2686316,14.8166087 C25.2686316,17.9470435 25.3991579,20.3731304 27.2004211,20.3731304 L27.2004211,20.3731304 Z M20.0736842,6.10356522 L25.1642105,6.10356522 L25.1642105,8.26878261 L25.2425263,8.26878261 C25.6341053,7.06878261 26.7044211,5.66008696 29.0538947,5.66008696 C32.6042105,5.66008696 34.5098947,8.2166087 34.5098947,14.7905217 C34.5098947,20.2687826 33.7267368,24.234 29.3932632,24.234 C27.9313684,24.234 26.3128421,23.7383478 25.4513684,21.860087 L25.3730526,21.860087 L25.3730526,29.5322609 L20.0736842,29.5322609 L20.0736842,6.10356522 Z" id="Fill-951"></path>
            <path d="M43.3339958,20.3731304 C45.2657853,20.3731304 45.3702063,18.260087 45.3702063,15.0513913 C45.3702063,12.207913 45.2918905,9.49486957 43.3078905,9.49486957 C41.7415747,9.49486957 41.4022063,11.4018261 41.4022063,14.8166087 C41.4022063,17.9470435 41.5327326,20.3731304 43.3339958,20.3731304 L43.3339958,20.3731304 Z M36.2072589,6.10356522 L41.2977853,6.10356522 L41.2977853,8.26878261 L41.3761011,8.26878261 C41.76768,7.06878261 42.8379958,5.66008696 45.1874695,5.66008696 C48.7377853,5.66008696 50.6434695,8.2166087 50.6434695,14.7905217 C50.6434695,20.2687826 49.8603116,24.234 45.5268379,24.234 C44.0649432,24.234 42.4464168,23.7383478 41.5849432,21.860087 L41.5066274,21.860087 L41.5066274,29.5322609 L36.2072589,29.5322609 L36.2072589,6.10356522 Z" id="Fill-952"></path>
            <polygon id="Fill-953" points="52.5752589 0.443478261 58.0573642 0.443478261 58.0573642 9.15652174 62.4430484 9.15652174 62.4430484 0.443478261 67.9251537 0.443478261 67.9251537 23.7391304 62.4430484 23.7391304 62.4430484 13.773913 58.0573642 13.773913 58.0573642 23.7391304 52.5752589 23.7391304"></polygon>
            <path d="M84.2928926,23.7665217 L79.2023663,23.7665217 L79.2023663,21.6769565 L79.1501558,21.6769565 C78.3931032,23.2447826 76.8528926,24.236087 74.8949979,24.236087 C71.8928926,24.236087 70.3004716,22.7230435 70.3004716,19.3317391 L70.3004716,6.10304348 L75.59984,6.10304348 L75.59984,18.1578261 C75.59984,19.436087 76.1480505,20.1926087 77.1400505,20.1926087 C78.1581558,20.1926087 79.0457347,19.4073913 79.0457347,17.6882609 L79.0457347,6.12913043 L84.3451032,6.12913043 L84.3451032,23.7665217 L84.2928926,23.7665217 Z" id="Fill-954"></path>
            <path d="M93.5075284,20.3731304 C95.4915284,20.3731304 95.5698442,17.660087 95.5698442,14.8166087 C95.5698442,11.6105217 95.4654232,9.49486957 93.5336337,9.49486957 C91.7323705,9.49486957 91.6018442,11.9235652 91.6018442,15.0513913 C91.6279495,18.4713913 91.9412126,20.3731304 93.5075284,20.3731304 L93.5075284,20.3731304 Z M86.4330021,0.442695652 L91.7323705,0.442695652 L91.7323705,8.01052174 L91.8106863,8.01052174 C92.6982653,6.10356522 94.2906863,5.6366087 95.7525811,5.6366087 C100.086055,5.6366087 100.869213,9.57313043 100.869213,15.080087 C100.869213,21.6774783 98.9635284,24.2105217 95.4132126,24.2105217 C93.0637389,24.2105217 91.9934232,22.8018261 91.6018442,21.6018261 L91.5235284,21.6018261 L91.5235284,23.7670435 L86.4330021,23.7670435 L86.4330021,0.442695652 Z" id="Fill-955"></path>
        </g>
    </g>
</svg>